<svg width="44" height="45" viewBox="0 0 44 45" fill="none" xmlns="http://www.w3.org/2000/svg">
<g clip-path="url(#clip0_176_2017)">
<path d="M18.3333 44.2556C7.94444 42.4222 0 33.3778 0 22.5C0 10.4 9.9 0.5 22 0.5C34.1 0.5 44 10.4 44 22.5C44 33.3778 36.0556 42.4222 25.6667 44.2556L24.4444 43.2778H19.5556L18.3333 44.2556Z" fill="#408BEA"/>
<path d="M29.4677 31.0517L30.2935 25.8793H25.3387V22.2586C25.3387 20.8103 25.8548 19.6724 28.1258 19.6724H30.5V14.9138C29.1581 14.7069 27.7129 14.5 26.371 14.5C22.1387 14.5 19.1452 17.0862 19.1452 21.7414V25.8793H14.5V31.0517H19.1452V44.1897C20.1774 44.3966 21.2097 44.5 22.2419 44.5C23.2742 44.5 24.3065 44.3966 25.3387 44.1897V31.0517H29.4677Z" fill="white"/>
</g>
<defs>
<clipPath id="clip0_176_2017">
<rect width="44" height="44" fill="white" transform="translate(0 0.5)"/>
</clipPath>
</defs>
</svg>
