<svg width="44" height="45" viewBox="0 0 44 45" fill="none" xmlns="http://www.w3.org/2000/svg">
<path d="M22 44C33.8741 44 43.5 34.3741 43.5 22.5C43.5 10.6259 33.8741 1 22 1C10.1259 1 0.5 10.6259 0.5 22.5C0.5 34.3741 10.1259 44 22 44Z" fill="white" stroke="black" stroke-opacity="0.0576377"/>
<path d="M13.2807 22.4778C13.2807 21.5058 13.4466 20.5734 13.7399 19.6997L8.58942 15.8477C7.55459 17.9044 7.01721 20.1754 7.02052 22.4778C7.02052 24.8604 7.58431 27.1079 8.58686 29.1028L13.7348 25.2443C13.4347 24.3528 13.2813 23.4185 13.2807 22.4778Z" fill="#FFC635"/>
<path d="M22.3271 13.6342C24.4827 13.6342 26.4304 14.3816 27.961 15.6061L32.4138 11.2528C29.7008 8.94029 26.2225 7.51172 22.3271 7.51172C16.2786 7.51172 11.0796 10.8982 8.58984 15.8472L13.7429 19.6992C14.9291 16.1712 18.3118 13.6342 22.3271 13.6342Z" fill="#CD2026"/>
<path d="M22.3271 31.3199C18.3105 31.3199 14.9279 28.7829 13.7404 25.2549L8.58984 29.1069C11.0784 34.0559 16.2773 37.4424 22.3271 37.4424C26.0592 37.4424 29.623 36.1452 32.299 33.7128L27.4087 30.0113C26.0299 30.862 24.2927 31.3199 22.3258 31.3199" fill="#06AD0C"/>
<path d="M36.9362 22.4775C36.9362 21.5936 36.7959 20.6408 36.588 19.7568H22.3252V25.5387H30.5344C30.1249 27.5107 29.0076 29.026 27.4094 30.0119L32.2984 33.7135C35.1084 31.1599 36.9362 27.3563 36.9362 22.4775Z" fill="#408BEA"/>
</svg>
