<svg width="13" height="12" viewBox="0 0 13 12" fill="none" xmlns="http://www.w3.org/2000/svg">
<rect x="0.5" width="12" height="12" rx="6" fill="white"/>
<path d="M7.00205 9.53595C7.00205 9.6691 6.94915 9.7968 6.855 9.89095C6.76085 9.9851 6.63315 10.038 6.5 10.038C6.36685 10.038 6.23915 9.9851 6.145 9.89095C6.05085 9.7968 5.99795 9.6691 5.99795 9.53595L6.00149 6.49893L2.96447 6.50246C2.83132 6.50246 2.70362 6.44957 2.60947 6.35542C2.51531 6.26126 2.46242 6.13357 2.46242 6.00042C2.46242 5.86727 2.51531 5.73957 2.60947 5.64542C2.70362 5.55126 2.83131 5.49837 2.96447 5.49837L6.00149 5.50191L5.99795 2.46488C5.99795 2.33173 6.05085 2.20403 6.145 2.10988C6.23915 2.01573 6.36685 1.96284 6.5 1.96284C6.63315 1.96284 6.76085 2.01573 6.855 2.10988C6.94915 2.20403 7.00205 2.33173 7.00205 2.46488L6.99851 5.50191L10.0355 5.49837C10.1687 5.49837 10.2964 5.55126 10.3905 5.64542C10.4847 5.73957 10.5376 5.86727 10.5376 6.00042C10.5376 6.13357 10.4847 6.26126 10.3905 6.35542C10.2964 6.44957 10.1687 6.50246 10.0355 6.50246L6.99851 6.49893L7.00205 9.53595Z" fill="#222221"/>
</svg>
