<svg width="11" height="11" viewBox="0 0 11 11" fill="none" xmlns="http://www.w3.org/2000/svg">
<path d="M5.49988 9.30099L2.83389 10.907C2.71611 10.982 2.59298 11.0141 2.4645 11.0034C2.33602 10.9927 2.2236 10.9498 2.12724 10.8749C2.03088 10.7999 1.95593 10.7064 1.90239 10.5942C1.84886 10.4815 1.83815 10.3556 1.87027 10.2164L2.57692 7.18104L0.216074 5.1414C0.109006 5.04504 0.0421953 4.93518 0.0156424 4.81184C-0.0113387 4.68893 -0.00341567 4.56858 0.0394115 4.45081C0.0822387 4.33303 0.146479 4.23667 0.232134 4.16172C0.317788 4.08678 0.435563 4.0386 0.585458 4.01718L3.70114 3.74416L4.90565 0.885445C4.95919 0.756963 5.04227 0.660602 5.15491 0.596361C5.26711 0.53212 5.3821 0.5 5.49988 0.5C5.61765 0.5 5.73286 0.53212 5.84549 0.596361C5.9577 0.660602 6.04057 0.756963 6.09411 0.885445L7.29862 3.74416L10.4143 4.01718C10.5642 4.0386 10.682 4.08678 10.7676 4.16172C10.8533 4.23667 10.9175 4.33303 10.9603 4.45081C11.0032 4.56858 11.0113 4.68893 10.9848 4.81184C10.9578 4.93518 10.8908 5.04504 10.7837 5.1414L8.42283 7.18104L9.12948 10.2164C9.1616 10.3556 9.1509 10.4815 9.09736 10.5942C9.04383 10.7064 8.96888 10.7999 8.87252 10.8749C8.77616 10.9498 8.66374 10.9927 8.53526 11.0034C8.40677 11.0141 8.28365 10.982 8.16587 10.907L5.49988 9.30099Z" fill="#FF4A22"/>
</svg>
